<svg width="40" height="50" fill="none" xmlns="http://www.w3.org/2000/svg"><path d="M39.542 47.32c.61.613.61 1.607 0 2.22a1.554 1.554 0 01-2.21 0l-2.643-2.656a6.962 6.962 0 01-3.595.996c-3.877 0-7.032-3.17-7.032-7.065 0-3.896 3.155-7.066 7.032-7.066 3.877 0 7.03 3.17 7.03 7.066a7.048 7.048 0 01-1.172 3.902l2.59 2.602zm-8.448-2.58c2.154 0 3.906-1.76 3.906-3.925s-1.752-3.926-3.906-3.926-3.907 1.761-3.907 3.926c0 2.164 1.753 3.925 3.907 3.925zM33.75 0H6.25C2.804 0 0 2.817 0 6.28v37.44C0 47.182 2.804 50 6.25 50h16.094c.863 0 1.562-.703 1.562-1.57 0-.867-.7-1.57-1.562-1.57H6.25a3.136 3.136 0 01-3.125-3.14V6.28A3.136 3.136 0 016.25 3.14h27.5a3.136 3.136 0 013.125 3.14v25.35c0 .866.7 1.57 1.562 1.57.864 0 1.563-.704 1.563-1.57V6.28C40 2.818 37.196 0 33.75 0z" fill="url(#paint0_linear)"/><circle cx="12.5" cy="11.5" r="3" stroke="url(#paint1_linear)" stroke-width="3"/><circle cx="12.5" cy="24.5" r="3" stroke="url(#paint2_linear)" stroke-width="3"/><circle cx="12.5" cy="37.5" r="3" stroke="url(#paint3_linear)" stroke-width="3"/><rect x="20" y="8" width="13" height="3" rx="1.5" fill="url(#paint4_linear)"/><rect x="20" y="21" width="13" height="3" rx="1.5" fill="url(#paint5_linear)"/><rect x="20" y="12" width="7" height="3" rx="1.5" fill="url(#paint6_linear)"/><rect x="20" y="25" width="7" height="3" rx="1.5" fill="url(#paint7_linear)"/><rect x="20" y="34" width="4" height="3" rx="1.5" fill="url(#paint8_linear)"/><rect x="20" y="38" width="3" height="3" rx="1.5" fill="url(#paint9_linear)"/><defs><linearGradient id="paint0_linear" x1="28.285" y1="37.013" x2="-8.04" y2="29.212" gradientUnits="userSpaceOnUse"><stop stop-color="#FF5A78"/><stop offset="1" stop-color="#FF5A5A"/></linearGradient><linearGradient id="paint1_linear" x1="13.121" y1="12.221" x2="10.463" y2="11.507" gradientUnits="userSpaceOnUse"><stop stop-color="#FF5A78"/><stop offset="1" stop-color="#FF5A5A"/></linearGradient><linearGradient id="paint2_linear" x1="13.121" y1="25.221" x2="10.463" y2="24.507" gradientUnits="userSpaceOnUse"><stop stop-color="#FF5A78"/><stop offset="1" stop-color="#FF5A5A"/></linearGradient><linearGradient id="paint3_linear" x1="13.121" y1="38.221" x2="10.463" y2="37.507" gradientUnits="userSpaceOnUse"><stop stop-color="#FF5A78"/><stop offset="1" stop-color="#FF5A5A"/></linearGradient><linearGradient id="paint4_linear" x1="29.193" y1="10.221" x2="23.945" y2="4.116" gradientUnits="userSpaceOnUse"><stop stop-color="#FF5A78"/><stop offset="1" stop-color="#FF5A5A"/></linearGradient><linearGradient id="paint5_linear" x1="29.193" y1="23.221" x2="23.945" y2="17.116" gradientUnits="userSpaceOnUse"><stop stop-color="#FF5A78"/><stop offset="1" stop-color="#FF5A5A"/></linearGradient><linearGradient id="paint6_linear" x1="24.95" y1="14.221" x2="20.174" y2="11.229" gradientUnits="userSpaceOnUse"><stop stop-color="#FF5A78"/><stop offset="1" stop-color="#FF5A5A"/></linearGradient><linearGradient id="paint7_linear" x1="24.95" y1="27.221" x2="20.174" y2="24.229" gradientUnits="userSpaceOnUse"><stop stop-color="#FF5A78"/><stop offset="1" stop-color="#FF5A5A"/></linearGradient><linearGradient id="paint8_linear" x1="22.828" y1="36.221" x2="19.46" y2="35.015" gradientUnits="userSpaceOnUse"><stop stop-color="#FF5A78"/><stop offset="1" stop-color="#FF5A5A"/></linearGradient><linearGradient id="paint9_linear" x1="22.121" y1="40.221" x2="19.463" y2="39.507" gradientUnits="userSpaceOnUse"><stop stop-color="#FF5A78"/><stop offset="1" stop-color="#FF5A5A"/></linearGradient></defs></svg>