<svg width="52" height="58" fill="none" xmlns="http://www.w3.org/2000/svg"><path d="M44.36 13.64a25.881 25.881 0 00-36.72 0 25.881 25.881 0 000 36.72 25.881 25.881 0 0036.72 0 25.881 25.881 0 000-36.72zm2.152 8.078c-.722 1.476-2.643 5.285-4.958 8.94-4.019 6.343-6.753 8.268-7.874 7.987-.214-.053-.658-.164-.822-1.454-.24-1.887.351-4.46.351-6.004 0-.9-.329-2.534-2.532-3.36-1.104-.413-2.402-.539-3.658-.66-.83-.08-2.22-.214-2.543-.448-.405-.304-.432-.505-.441-.57-.095-.703.978-2.088 1.688-3.004.798-1.03 1.552-2.004 1.766-3.014.204-.96.193-2.826-2.242-7.926a74.23 74.23 0 00-1.544-3.04c9.76-.974 18.655 4.3 22.81 12.553zm-37.52-5.11c1.763.859 4.52 2.636 4.141 4.532-.274 1.371-1.056 2.245-1.963 3.257-1.31 1.463-2.94 3.284-2.94 6.79 0 2.192-1.84 4.61-4.55 6.155A22.898 22.898 0 018.992 16.61zM26 54.949c-9.727 0-18.059-6.083-21.394-14.644 3.988-2.053 6.67-5.649 6.67-9.117 0-2.342.955-3.408 2.164-4.758 1.051-1.174 2.243-2.505 2.68-4.691.649-3.243-1.948-5.737-4.816-7.35a22.9 22.9 0 019.227-4.677c.493.89 1.25 2.303 1.975 3.823 2.2 4.61 2.03 5.84 2.004 5.964-.07.329-.747 1.203-1.195 1.781-1.202 1.552-2.564 3.31-2.3 5.277.138 1.016.687 1.89 1.634 2.6 1.696 1.273 5.12.834 6.959 1.524.555.208.555.353.555.507 0 1.244-.62 4.073-.327 6.387.352 2.774 1.883 3.721 3.105 4.026.322.081.65.122.981.122 2.882 0 6.162-3.048 10.22-9.456 1.544-2.44 2.898-4.902 3.869-6.76 4.34 14.684-6.729 29.442-22.012 29.442z" fill="url(#paint0_linear)"/><path d="M24.226 39.936c-2.042-.703-4.93-.927-6.5.007-1.924 1.146-3.39 5.309-2.207 7.676.847 1.694 4.229 3.15 6.11 3.15 1.146 0 2.462-.171 3.432-.656 3.046-1.523 3.007-5.648 2.176-7.788-.402-1.035-1.415-1.839-3.011-2.389zm-.527 7.452c-.417.209-1.42.386-2.527.323-1.15-.067-2.788-1.348-2.945-1.489-.135-.32-.15-1.059.134-1.983.296-.964.748-1.57.924-1.679.218-.13 1.209-.323 2.736-.052 1.47.26 2.24.747 2.385.943.27.748.832 3.167-.707 3.937z" fill="url(#paint1_linear)"/><path d="M41 5.5a5.5 5.5 0 11-11 0 5.5 5.5 0 0111 0z" fill="#fff"/><path fill-rule="evenodd" clip-rule="evenodd" d="M35.5 8a2.5 2.5 0 100-5 2.5 2.5 0 000 5zm0 3a5.5 5.5 0 100-11 5.5 5.5 0 000 11z" fill="url(#paint2_linear)"/><path d="M34 10.5a1.5 1.5 0 013 0v4a1.5 1.5 0 01-3 0v-4z" fill="url(#paint3_linear)"/><path d="M32 15.5a5.5 5.5 0 11-11 0 5.5 5.5 0 0111 0z" fill="#fff"/><path fill-rule="evenodd" clip-rule="evenodd" d="M26.5 18a2.5 2.5 0 100-5 2.5 2.5 0 000 5zm0 3a5.5 5.5 0 100-11 5.5 5.5 0 000 11z" fill="url(#paint4_linear)"/><path d="M25 20.5a1.5 1.5 0 013 0v4a1.5 1.5 0 01-3 0v-4z" fill="url(#paint5_linear)"/><path d="M43 22.5a5.5 5.5 0 11-11 0 5.5 5.5 0 0111 0z" fill="#fff"/><path fill-rule="evenodd" clip-rule="evenodd" d="M37.5 25a2.5 2.5 0 100-5 2.5 2.5 0 000 5zm0 3a5.5 5.5 0 100-11 5.5 5.5 0 000 11z" fill="url(#paint6_linear)"/><path d="M36 27.5a1.5 1.5 0 013 0v4a1.5 1.5 0 01-3 0v-4z" fill="url(#paint7_linear)"/><defs><linearGradient id="paint0_linear" x1="36.77" y1="44.493" x2="-9.309" y2="32.123" gradientUnits="userSpaceOnUse"><stop stop-color="#FF5A78"/><stop offset="1" stop-color="#FF5A5A"/></linearGradient><linearGradient id="paint1_linear" x1="24.022" y1="47.796" x2="12.994" y2="44.53" gradientUnits="userSpaceOnUse"><stop stop-color="#FF5A78"/><stop offset="1" stop-color="#FF5A5A"/></linearGradient><linearGradient id="paint2_linear" x1="37.778" y1="8.143" x2="28.031" y2="5.526" gradientUnits="userSpaceOnUse"><stop stop-color="#FF5A78"/><stop offset="1" stop-color="#FF5A5A"/></linearGradient><linearGradient id="paint3_linear" x1="36.121" y1="14.182" x2="33.309" y2="13.858" gradientUnits="userSpaceOnUse"><stop stop-color="#FF5A78"/><stop offset="1" stop-color="#FF5A5A"/></linearGradient><linearGradient id="paint4_linear" x1="28.778" y1="18.143" x2="19.031" y2="15.526" gradientUnits="userSpaceOnUse"><stop stop-color="#FF5A78"/><stop offset="1" stop-color="#FF5A5A"/></linearGradient><linearGradient id="paint5_linear" x1="27.121" y1="24.182" x2="24.309" y2="23.858" gradientUnits="userSpaceOnUse"><stop stop-color="#FF5A78"/><stop offset="1" stop-color="#FF5A5A"/></linearGradient><linearGradient id="paint6_linear" x1="39.778" y1="25.143" x2="30.031" y2="22.526" gradientUnits="userSpaceOnUse"><stop stop-color="#FF5A78"/><stop offset="1" stop-color="#FF5A5A"/></linearGradient><linearGradient id="paint7_linear" x1="38.121" y1="31.182" x2="35.309" y2="30.858" gradientUnits="userSpaceOnUse"><stop stop-color="#FF5A78"/><stop offset="1" stop-color="#FF5A5A"/></linearGradient></defs></svg>