<svg width="49" height="54" fill="none" xmlns="http://www.w3.org/2000/svg"><path d="M36 16.477a1.523 1.523 0 103.047 0V10h8.305a1 1 0 00.887-1.462l-1.645-3.161a1 1 0 01-.011-.902l1.489-3.034A1 1 0 0047.174 0H38a2 2 0 00-2 2v14.477z" fill="url(#paint0_linear)"/><path d="M35.745 34.795h-8.853a5.01 5.01 0 01-5.005-5.005 5.01 5.01 0 015.005-5.005h9.376c.38.367.897.594 1.466.594a2.12 2.12 0 002.117-2.117 2.12 2.12 0 00-2.117-2.117 2.11 2.11 0 00-1.466.593h-9.376c-4.44 0-8.052 3.612-8.052 8.052 0 4.44 3.612 8.052 8.052 8.052h8.854a6.266 6.266 0 016.258 6.259 6.266 6.266 0 01-6.258 6.259H6.683a2.108 2.108 0 00-1.466-.594A2.12 2.12 0 003.1 51.883 2.12 2.12 0 005.217 54c.569 0 1.085-.227 1.466-.594h29.063c5.13 0 9.305-4.174 9.305-9.305 0-5.131-4.175-9.306-9.306-9.306z" fill="url(#paint1_linear)"/><circle cx="5.5" cy="35.5" r="4" fill="#fff" stroke="url(#paint2_linear)" stroke-width="3"/><rect x="4" y="39" width="3" height="8" rx="1.5" fill="url(#paint3_linear)"/><defs><linearGradient id="paint0_linear" x1="45.193" y1="13.325" x2="33.29" y2="11.017" gradientUnits="userSpaceOnUse"><stop stop-color="#FF5A78"/><stop offset="1" stop-color="#FF5A5A"/></linearGradient><linearGradient id="paint1_linear" x1="32.764" y1="45.467" x2="-2.899" y2="33.242" gradientUnits="userSpaceOnUse"><stop stop-color="#FF5A78"/><stop offset="1" stop-color="#FF5A5A"/></linearGradient><linearGradient id="paint2_linear" x1="7.778" y1="38.143" x2="-1.969" y2="35.526" gradientUnits="userSpaceOnUse"><stop stop-color="#FF5A78"/><stop offset="1" stop-color="#FF5A5A"/></linearGradient><linearGradient id="paint3_linear" x1="6.121" y1="44.922" x2="3.3" y2="44.638" gradientUnits="userSpaceOnUse"><stop stop-color="#FF5A78"/><stop offset="1" stop-color="#FF5A5A"/></linearGradient></defs></svg>