<svg width="64" height="64" fill="none" xmlns="http://www.w3.org/2000/svg"><path d="M61 51.5a8.38 8.38 0 01-.9 3.8 8.5 8.5 0 01-7.6 4.7 8.379 8.379 0 01-3.8-.9L43 61l1.9-5.7a8.38 8.38 0 01-.9-3.8 8.5 8.5 0 014.7-7.6 8.381 8.381 0 013.8-.9h.5a8.48 8.48 0 018 8v.5z" stroke="url(#paint0_linear)" stroke-width="3" stroke-linecap="round" stroke-linejoin="round"/><path d="M2 12s3.636-7 10-7 10 7 10 7-3.636 7-10 7-10-7-10-7z" stroke="url(#paint1_linear)" stroke-width="3" stroke-linecap="round" stroke-linejoin="round"/><path d="M12 15a3 3 0 100-6 3 3 0 000 6z" stroke="url(#paint2_linear)" stroke-width="3" stroke-linecap="round" stroke-linejoin="round"/><path d="M52 2v20" stroke="url(#paint3_linear)" stroke-width="3" stroke-linecap="round" stroke-linejoin="round"/><path d="M57 5h-7.5a3.5 3.5 0 100 7h5a3.5 3.5 0 010 7H46" stroke="url(#paint4_linear)" stroke-width="3" stroke-linecap="round" stroke-linejoin="round"/><path d="M3 49l9-7 9 7v11a2 2 0 01-2 2H5a2 2 0 01-2-2V49z" stroke="url(#paint5_linear)" stroke-width="3" stroke-linecap="round" stroke-linejoin="round"/><path d="M9 62V52h6v10" stroke="url(#paint6_linear)" stroke-width="3" stroke-linecap="round" stroke-linejoin="round"/><rect x="23" y="39.263" width="23" height="3" rx="1.5" transform="rotate(-45 23 39.263)" fill="url(#paint7_linear)"/><rect x="25.121" y="23" width="23" height="3" rx="1.5" transform="rotate(45 25.121 23)" fill="url(#paint8_linear)"/><defs><linearGradient id="paint0_linear" x1="55.728" y1="56.325" x2="39.778" y2="52.043" gradientUnits="userSpaceOnUse"><stop stop-color="#FF5A78"/><stop offset="1" stop-color="#FF5A5A"/></linearGradient><linearGradient id="paint1_linear" x1="16.142" y1="15.364" x2="-.421" y2="9.011" gradientUnits="userSpaceOnUse"><stop stop-color="#FF5A78"/><stop offset="1" stop-color="#FF5A5A"/></linearGradient><linearGradient id="paint2_linear" x1="13.243" y1="13.442" x2="7.926" y2="12.014" gradientUnits="userSpaceOnUse"><stop stop-color="#FF5A78"/><stop offset="1" stop-color="#FF5A5A"/></linearGradient><linearGradient id="paint3_linear" x1="52.707" y1="16.805" x2="51.757" y2="16.793" gradientUnits="userSpaceOnUse"><stop stop-color="#FF5A78"/><stop offset="1" stop-color="#FF5A5A"/></linearGradient><linearGradient id="paint4_linear" x1="54.486" y1="15.364" x2="43.659" y2="12.872" gradientUnits="userSpaceOnUse"><stop stop-color="#FF5A78"/><stop offset="1" stop-color="#FF5A5A"/></linearGradient><linearGradient id="paint5_linear" x1="15.728" y1="56.805" x2="-.429" y2="52.902" gradientUnits="userSpaceOnUse"><stop stop-color="#FF5A78"/><stop offset="1" stop-color="#FF5A5A"/></linearGradient><linearGradient id="paint6_linear" x1="13.243" y1="59.403" x2="7.687" y2="58.508" gradientUnits="userSpaceOnUse"><stop stop-color="#FF5A78"/><stop offset="1" stop-color="#FF5A5A"/></linearGradient><linearGradient id="paint7_linear" x1="39.264" y1="41.484" x2="35.091" y2="32.896" gradientUnits="userSpaceOnUse"><stop stop-color="#FF5A78"/><stop offset="1" stop-color="#FF5A5A"/></linearGradient><linearGradient id="paint8_linear" x1="41.385" y1="25.221" x2="37.212" y2="16.632" gradientUnits="userSpaceOnUse"><stop stop-color="#FF5A78"/><stop offset="1" stop-color="#FF5A5A"/></linearGradient></defs></svg>