<svg width="52" height="58" viewBox="0 0 52 58" fill="none" xmlns="http://www.w3.org/2000/svg">
<path d="M44.3597 13.6394C34.175 3.4546 17.8276 3.45115 7.6394 13.6394C-2.51312 23.7919 -2.58105 40.1392 7.6394 50.3596C17.8241 60.5444 34.1715 60.5479 44.3597 50.3596C54.5444 40.1749 54.5479 23.8276 44.3597 13.6394ZM46.5122 21.7185C45.7903 23.1939 43.8694 27.0032 41.5541 30.6577C37.535 37.0013 34.8007 38.9256 33.68 38.6453C33.4663 38.5918 33.0218 38.4807 32.8582 37.1908C32.6188 35.3039 33.209 32.7311 33.209 31.1872C33.209 30.287 32.8801 28.6535 30.6774 27.8275C29.5735 27.4136 28.2748 27.2882 27.0188 27.167C26.1887 27.0869 24.7994 26.9527 24.4764 26.7193C24.0708 26.4151 24.0437 26.2145 24.0348 26.1486C23.9401 25.4462 25.0129 24.0612 25.7229 23.1447C26.5211 22.1142 27.2751 21.141 27.4894 20.1306C27.6931 19.171 27.6822 17.3055 25.2472 12.2047C24.7077 11.0747 24.1589 10.0154 23.7033 9.16535C33.4634 8.19146 42.3582 13.4642 46.5122 21.7185ZM8.99174 16.6089C10.7551 17.4668 13.5125 19.2438 13.1333 21.1404C12.8591 22.511 12.0765 23.3849 11.1702 24.3969C9.86003 25.8599 8.22956 27.6807 8.22956 31.1872C8.22956 33.3793 6.38931 35.7973 3.68026 37.3421C1.96449 30.174 3.75723 22.388 8.99174 16.6089ZM25.9995 54.9481C16.2729 54.9481 7.94118 48.8651 4.60643 40.304C8.5939 38.2512 11.2758 34.6552 11.2758 31.1872C11.2758 28.8453 12.2306 27.779 13.4395 26.4292C14.4912 25.2549 15.6832 23.9238 16.1203 21.7378C16.769 18.4949 14.1724 16.0008 11.3041 14.3879C13.9443 12.1812 17.0862 10.5565 20.5312 9.71104C21.0236 10.6018 21.7814 12.0145 22.5062 13.534C24.7052 18.1442 24.5362 19.3732 24.5096 19.4982C24.4399 19.8266 23.7627 20.7008 23.3146 21.2793C22.1128 22.8307 20.7506 24.5892 21.0159 26.5559C21.153 27.5716 21.7022 28.4465 22.6486 29.1563C24.3452 30.4287 27.7681 29.99 29.6078 30.6798C30.1627 30.8878 30.1627 31.0332 30.1627 31.1872C30.1627 32.4306 29.5427 35.26 29.8361 37.5739C30.1879 40.3483 31.7188 41.295 32.9411 41.6005C33.2633 41.6811 33.5903 41.7216 33.9224 41.7216C36.8038 41.7216 40.0843 38.6744 44.1413 32.2659C45.6861 29.8256 47.0401 27.3636 48.0109 25.5055C52.3507 40.1897 41.2822 54.9481 25.9995 54.9481Z" fill="url(#paint0_linear)"/>
<path d="M24.2259 39.9364C22.1837 39.2328 19.2954 39.009 17.7267 39.9429C15.802 41.0885 14.3352 45.252 15.5188 47.6192C16.3656 49.3129 19.748 50.7689 21.6283 50.7689C22.7753 50.7689 24.0907 50.5978 25.061 50.1128C28.1072 48.5896 28.0678 44.4655 27.2367 42.3252C26.8348 41.2898 25.8218 40.4862 24.2259 39.9364ZM23.6986 47.3881C23.2818 47.5965 22.2799 47.774 21.1717 47.7105C20.0212 47.6444 18.3837 46.3633 18.2275 46.2221C18.0922 45.9017 18.0777 45.1633 18.3615 44.2388C18.6573 43.275 19.1092 42.6699 19.2849 42.5604C19.5028 42.4308 20.494 42.2373 22.0206 42.5078C23.4907 42.7683 24.2619 43.2555 24.4057 43.451C24.6758 44.1988 25.2385 46.6182 23.6986 47.3881Z" fill="url(#paint1_linear)"/>
<path d="M41 5.5C41 8.53757 38.5376 11 35.5 11C32.4624 11 30 8.53757 30 5.5C30 2.46243 32.4624 0 35.5 0C38.5376 0 41 2.46243 41 5.5Z" fill="white"/>
<path fill-rule="evenodd" clip-rule="evenodd" d="M35.5 8C36.8807 8 38 6.88071 38 5.5C38 4.11929 36.8807 3 35.5 3C34.1193 3 33 4.11929 33 5.5C33 6.88071 34.1193 8 35.5 8ZM35.5 11C38.5376 11 41 8.53756 41 5.5C41 2.46243 38.5376 0 35.5 0C32.4624 0 30 2.46243 30 5.5C30 8.53756 32.4624 11 35.5 11Z" fill="url(#paint2_linear)"/>
<path d="M34 10.5C34 9.67157 34.6716 9 35.5 9C36.3284 9 37 9.67157 37 10.5V14.5C37 15.3284 36.3284 16 35.5 16C34.6716 16 34 15.3284 34 14.5V10.5Z" fill="url(#paint3_linear)"/>
<path d="M32 15.5C32 18.5376 29.5376 21 26.5 21C23.4624 21 21 18.5376 21 15.5C21 12.4624 23.4624 10 26.5 10C29.5376 10 32 12.4624 32 15.5Z" fill="white"/>
<path fill-rule="evenodd" clip-rule="evenodd" d="M26.5 18C27.8807 18 29 16.8807 29 15.5C29 14.1193 27.8807 13 26.5 13C25.1193 13 24 14.1193 24 15.5C24 16.8807 25.1193 18 26.5 18ZM26.5 21C29.5376 21 32 18.5376 32 15.5C32 12.4624 29.5376 10 26.5 10C23.4624 10 21 12.4624 21 15.5C21 18.5376 23.4624 21 26.5 21Z" fill="url(#paint4_linear)"/>
<path d="M25 20.5C25 19.6716 25.6716 19 26.5 19C27.3284 19 28 19.6716 28 20.5V24.5C28 25.3284 27.3284 26 26.5 26C25.6716 26 25 25.3284 25 24.5V20.5Z" fill="url(#paint5_linear)"/>
<path d="M43 22.5C43 25.5376 40.5376 28 37.5 28C34.4624 28 32 25.5376 32 22.5C32 19.4624 34.4624 17 37.5 17C40.5376 17 43 19.4624 43 22.5Z" fill="white"/>
<path fill-rule="evenodd" clip-rule="evenodd" d="M37.5 25C38.8807 25 40 23.8807 40 22.5C40 21.1193 38.8807 20 37.5 20C36.1193 20 35 21.1193 35 22.5C35 23.8807 36.1193 25 37.5 25ZM37.5 28C40.5376 28 43 25.5376 43 22.5C43 19.4624 40.5376 17 37.5 17C34.4624 17 32 19.4624 32 22.5C32 25.5376 34.4624 28 37.5 28Z" fill="url(#paint6_linear)"/>
<path d="M36 27.5C36 26.6716 36.6716 26 37.5 26C38.3284 26 39 26.6716 39 27.5V31.5C39 32.3284 38.3284 33 37.5 33C36.6716 33 36 32.3284 36 31.5V27.5Z" fill="url(#paint7_linear)"/>
<defs>
<linearGradient id="paint0_linear" x1="36.7699" y1="44.4934" x2="-9.30936" y2="32.1229" gradientUnits="userSpaceOnUse">
<stop stop-color="#FF5A78"/>
<stop offset="1" stop-color="#FF5A5A"/>
</linearGradient>
<linearGradient id="paint1_linear" x1="24.0221" y1="47.796" x2="12.9942" y2="44.5302" gradientUnits="userSpaceOnUse">
<stop stop-color="#FF5A78"/>
<stop offset="1" stop-color="#FF5A5A"/>
</linearGradient>
<linearGradient id="paint2_linear" x1="37.7783" y1="8.14294" x2="28.0308" y2="5.5261" gradientUnits="userSpaceOnUse">
<stop stop-color="#FF5A78"/>
<stop offset="1" stop-color="#FF5A5A"/>
</linearGradient>
<linearGradient id="paint3_linear" x1="36.1214" y1="14.1819" x2="33.3086" y2="13.8582" gradientUnits="userSpaceOnUse">
<stop stop-color="#FF5A78"/>
<stop offset="1" stop-color="#FF5A5A"/>
</linearGradient>
<linearGradient id="paint4_linear" x1="28.7783" y1="18.1429" x2="19.0308" y2="15.5261" gradientUnits="userSpaceOnUse">
<stop stop-color="#FF5A78"/>
<stop offset="1" stop-color="#FF5A5A"/>
</linearGradient>
<linearGradient id="paint5_linear" x1="27.1214" y1="24.1819" x2="24.3086" y2="23.8582" gradientUnits="userSpaceOnUse">
<stop stop-color="#FF5A78"/>
<stop offset="1" stop-color="#FF5A5A"/>
</linearGradient>
<linearGradient id="paint6_linear" x1="39.7783" y1="25.1429" x2="30.0308" y2="22.5261" gradientUnits="userSpaceOnUse">
<stop stop-color="#FF5A78"/>
<stop offset="1" stop-color="#FF5A5A"/>
</linearGradient>
<linearGradient id="paint7_linear" x1="38.1214" y1="31.1819" x2="35.3086" y2="30.8582" gradientUnits="userSpaceOnUse">
<stop stop-color="#FF5A78"/>
<stop offset="1" stop-color="#FF5A5A"/>
</linearGradient>
</defs>
</svg>
