<svg width="49" height="54" viewBox="0 0 49 54" fill="none" xmlns="http://www.w3.org/2000/svg">
<path d="M36 16.4766C36 17.318 36.682 18 37.5234 18C38.3647 18 39.0468 17.318 39.0468 16.4766V10H47.3521C48.1027 10 48.5857 9.20402 48.2392 8.53829L46.5937 5.37701C46.447 5.09506 46.443 4.76012 46.583 4.47476L48.072 1.44055C48.3981 0.776109 47.9144 0 47.1743 0H38C36.8954 0 36 0.895431 36 2V16.4766Z" fill="url(#paint0_linear)"/>
<path d="M35.7455 34.7953H26.8923C24.1324 34.7953 21.8872 32.55 21.8872 29.7902C21.8872 27.0305 24.1324 24.7852 26.8923 24.7852H36.268C36.6488 25.1519 37.1653 25.3788 37.7344 25.3788C38.9017 25.3788 39.8514 24.4291 39.8514 23.2618C39.8514 22.0945 38.9017 21.1448 37.7344 21.1448C37.1653 21.1448 36.6488 21.3717 36.268 21.7384H26.8923C22.4524 21.7384 18.8405 25.3504 18.8405 29.7902C18.8405 34.2301 22.4524 37.8421 26.8923 37.8421H35.7455C39.1965 37.8421 42.0042 40.6498 42.0042 44.1009C42.0042 47.552 39.1965 50.3596 35.7455 50.3596H6.68304C6.30219 49.9929 5.78576 49.766 5.21662 49.766C4.04929 49.766 3.09961 50.7157 3.09961 51.883C3.09961 53.0504 4.04929 54.0001 5.21662 54.0001C5.78576 54.0001 6.30219 53.7732 6.68304 53.4064H35.7455C40.8765 53.4064 45.051 49.2319 45.051 44.1008C45.051 38.9698 40.8765 34.7953 35.7455 34.7953Z" fill="url(#paint1_linear)"/>
<circle cx="5.5" cy="35.5" r="4" fill="white" stroke="url(#paint2_linear)" stroke-width="3"/>
<rect x="4" y="39" width="3" height="8" rx="1.5" fill="url(#paint3_linear)"/>
<defs>
<linearGradient id="paint0_linear" x1="45.1926" y1="13.3248" x2="33.29" y2="11.017" gradientUnits="userSpaceOnUse">
<stop stop-color="#FF5A78"/>
<stop offset="1" stop-color="#FF5A5A"/>
</linearGradient>
<linearGradient id="paint1_linear" x1="32.7644" y1="45.4665" x2="-2.8991" y2="33.2415" gradientUnits="userSpaceOnUse">
<stop stop-color="#FF5A78"/>
<stop offset="1" stop-color="#FF5A5A"/>
</linearGradient>
<linearGradient id="paint2_linear" x1="7.77835" y1="38.1429" x2="-1.96919" y2="35.5261" gradientUnits="userSpaceOnUse">
<stop stop-color="#FF5A78"/>
<stop offset="1" stop-color="#FF5A5A"/>
</linearGradient>
<linearGradient id="paint3_linear" x1="6.12137" y1="44.9221" x2="3.29995" y2="44.6381" gradientUnits="userSpaceOnUse">
<stop stop-color="#FF5A78"/>
<stop offset="1" stop-color="#FF5A5A"/>
</linearGradient>
</defs>
</svg>
