<svg width="839" height="806" viewBox="0 0 839 806" fill="none" xmlns="http://www.w3.org/2000/svg">
<g filter="url(#filter0_d)">
<path d="M542.085 654.666C457.781 682.553 375.213 684.704 294.381 661.118C213.549 637.531 153.398 584.108 113.93 500.849C74.4613 417.59 87.7047 342.705 153.66 276.194C219.615 209.683 301.095 163.671 398.098 138.157C495.102 112.643 594.35 135.775 652.053 216.869C709.756 297.963 708.683 388.112 692.627 478.001C676.57 567.89 626.39 626.778 542.085 654.666Z" fill="url(#paint0_linear)"/>
</g>
<g filter="url(#filter1_d)">
<path d="M528.416 622.223C454.924 646.534 382.946 648.408 312.481 627.847C242.016 607.286 189.58 560.715 155.174 488.134C120.767 415.553 132.312 350.273 189.808 292.293C247.304 234.312 318.334 194.201 402.896 171.96C487.458 149.718 573.977 169.884 624.279 240.577C674.581 311.27 673.646 389.857 659.649 468.217C645.652 546.577 601.907 597.912 528.416 622.223Z" fill="url(#paint1_linear)"/>
</g>
<defs>
<filter id="filter0_d" x="61.7656" y="99.2826" width="670.338" height="609.047" filterUnits="userSpaceOnUse" color-interpolation-filters="sRGB">
<feFlood flood-opacity="0" result="BackgroundImageFix"/>
<feColorMatrix in="SourceAlpha" type="matrix" values="0 0 0 0 0 0 0 0 0 0 0 0 0 0 0 0 0 0 127 0"/>
<feOffset dy="1"/>
<feGaussianBlur stdDeviation="15"/>
<feColorMatrix type="matrix" values="0 0 0 0 0 0 0 0 0 0 0 0 0 0 0 0 0 0 0.1 0"/>
<feBlend mode="normal" in2="BackgroundImageFix" result="effect1_dropShadow"/>
<feBlend mode="normal" in="SourceGraphic" in2="effect1_dropShadow" result="shape"/>
</filter>
<filter id="filter1_d" x="105.852" y="134.352" width="592.058" height="538.628" filterUnits="userSpaceOnUse" color-interpolation-filters="sRGB">
<feFlood flood-opacity="0" result="BackgroundImageFix"/>
<feColorMatrix in="SourceAlpha" type="matrix" values="0 0 0 0 0 0 0 0 0 0 0 0 0 0 0 0 0 0 127 0"/>
<feOffset dy="1"/>
<feGaussianBlur stdDeviation="15"/>
<feColorMatrix type="matrix" values="0 0 0 0 0 0 0 0 0 0 0 0 0 0 0 0 0 0 0.1 0"/>
<feBlend mode="normal" in2="BackgroundImageFix" result="effect1_dropShadow"/>
<feBlend mode="normal" in="SourceGraphic" in2="effect1_dropShadow" result="shape"/>
</filter>
<linearGradient id="paint0_linear" x1="589.005" y1="173.756" x2="262.838" y2="656.3" gradientUnits="userSpaceOnUse">
<stop stop-color="#FF9B9B"/>
<stop offset="1" stop-color="#FF666E"/>
</linearGradient>
<linearGradient id="paint1_linear" x1="569.318" y1="202.993" x2="284.983" y2="623.647" gradientUnits="userSpaceOnUse">
<stop stop-color="#FF9B9B"/>
<stop offset="1" stop-color="#FF666E"/>
</linearGradient>
</defs>
</svg>
