<svg width="839" height="806" fill="none" xmlns="http://www.w3.org/2000/svg"><g filter="url(#filter0_d)"><path d="M542.085 654.666c-84.304 27.887-166.872 30.038-247.704 6.452-80.832-23.587-140.983-77.01-180.451-160.269-39.469-83.259-26.225-158.144 39.73-224.655s147.435-112.523 244.438-138.037c97.004-25.514 196.252-2.382 253.955 78.712 57.703 81.094 56.63 171.243 40.574 261.132-16.057 89.889-66.237 148.777-150.542 176.665z" fill="url(#paint0_linear)"/></g><g filter="url(#filter1_d)"><path d="M528.416 622.223c-73.492 24.311-145.47 26.185-215.935 5.624S189.58 560.715 155.174 488.134c-34.407-72.581-22.862-137.861 34.634-195.841 57.496-57.981 128.526-98.092 213.088-120.333 84.562-22.242 171.081-2.076 221.383 68.617 50.302 70.693 49.367 149.28 35.37 227.64-13.997 78.36-57.742 129.695-131.233 154.006z" fill="url(#paint1_linear)"/></g><defs><linearGradient id="paint0_linear" x1="589.005" y1="173.756" x2="262.838" y2="656.3" gradientUnits="userSpaceOnUse"><stop stop-color="#FF9B9B"/><stop offset="1" stop-color="#FF666E"/></linearGradient><linearGradient id="paint1_linear" x1="569.318" y1="202.993" x2="284.983" y2="623.647" gradientUnits="userSpaceOnUse"><stop stop-color="#FF9B9B"/><stop offset="1" stop-color="#FF666E"/></linearGradient><filter id="filter0_d" x="61.766" y="99.283" width="670.338" height="609.047" filterUnits="userSpaceOnUse" color-interpolation-filters="sRGB"><feFlood flood-opacity="0" result="BackgroundImageFix"/><feColorMatrix in="SourceAlpha" values="0 0 0 0 0 0 0 0 0 0 0 0 0 0 0 0 0 0 127 0"/><feOffset dy="1"/><feGaussianBlur stdDeviation="15"/><feColorMatrix values="0 0 0 0 0 0 0 0 0 0 0 0 0 0 0 0 0 0 0.1 0"/><feBlend in2="BackgroundImageFix" result="effect1_dropShadow"/><feBlend in="SourceGraphic" in2="effect1_dropShadow" result="shape"/></filter><filter id="filter1_d" x="105.852" y="134.352" width="592.058" height="538.628" filterUnits="userSpaceOnUse" color-interpolation-filters="sRGB"><feFlood flood-opacity="0" result="BackgroundImageFix"/><feColorMatrix in="SourceAlpha" values="0 0 0 0 0 0 0 0 0 0 0 0 0 0 0 0 0 0 127 0"/><feOffset dy="1"/><feGaussianBlur stdDeviation="15"/><feColorMatrix values="0 0 0 0 0 0 0 0 0 0 0 0 0 0 0 0 0 0 0.1 0"/><feBlend in2="BackgroundImageFix" result="effect1_dropShadow"/><feBlend in="SourceGraphic" in2="effect1_dropShadow" result="shape"/></filter></defs></svg>