<svg width="34" height="14" viewBox="0 0 34 14" fill="none" xmlns="http://www.w3.org/2000/svg">
<path d="M32.4954 4.6933L32.4647 4.68382C31.4896 4.38121 30.6504 3.775 30.0585 2.95601C30.6663 2.46629 31.2522 1.94238 31.8119 1.38267C32.1283 1.06636 32.1283 0.553554 31.8119 0.237168C31.4957 -0.079056 30.9828 -0.079056 30.6665 0.237168C27.49 3.41374 23.4326 5.38901 19.0451 5.93568C19.0157 5.9377 18.9867 5.9411 18.9582 5.94613C18.16 6.04211 17.3511 6.09128 16.5346 6.09136C16.5342 6.09136 16.5338 6.09128 16.5333 6.09128C16.5328 6.09128 16.5325 6.09136 16.532 6.09136C15.7156 6.09136 14.9067 6.04211 14.1083 5.94613C14.0798 5.94102 14.0509 5.93762 14.0214 5.93568C9.63399 5.38901 5.57654 3.41374 2.40004 0.237168C2.08374 -0.078975 1.57093 -0.079056 1.25462 0.237168C0.938315 0.553473 0.938315 1.06628 1.25462 1.38267C1.81433 1.94238 2.40028 2.46637 3.00803 2.95601C2.41624 3.775 1.57716 4.38129 0.602895 4.6835L0.571143 4.6933C0.143706 4.82533 -0.0957303 5.27877 0.0362997 5.7062C0.143706 6.05402 0.464061 6.27734 0.80985 6.27734C0.889068 6.27734 0.969582 6.26559 1.04912 6.24105L1.08193 6.23092C2.38668 5.826 3.51047 5.01689 4.30621 3.92429C4.58323 4.1152 4.86406 4.2994 5.14878 4.47654C4.75325 5.71763 3.8275 6.72048 2.59963 7.20762L2.34885 7.30701C1.933 7.47192 1.72969 7.94269 1.89452 8.35847C2.02056 8.67639 2.32528 8.86998 2.64758 8.86998C2.74696 8.86998 2.84797 8.85151 2.94598 8.81271L3.197 8.71317C4.77253 8.08809 5.9868 6.84417 6.58029 5.29229C6.89141 5.45413 7.2061 5.60811 7.52434 5.75424C7.43152 7.14314 6.62848 8.38293 5.38181 9.03336L5.33354 9.05855C4.93688 9.26534 4.78298 9.7545 4.98969 10.1512C5.13412 10.4283 5.41632 10.5869 5.70849 10.5869C5.8346 10.5869 5.96266 10.5573 6.08222 10.4949L6.13074 10.4696C7.72125 9.6398 8.7971 8.12721 9.07906 6.39527C9.42258 6.52123 9.76926 6.63868 10.1193 6.74697C10.0729 8.03171 9.57478 9.25279 8.70265 10.2042C8.40036 10.534 8.42263 11.0462 8.75247 11.3486C8.90799 11.4911 9.10401 11.5614 9.29946 11.5614C9.51865 11.5614 9.7371 11.473 9.89675 11.2988C10.9464 10.1537 11.5796 8.70806 11.7154 7.17457C12.181 7.28003 12.6512 7.36938 13.1252 7.44398C13.0202 8.68822 12.6384 9.8982 12.0032 10.9792L11.8941 11.1648C11.6676 11.5505 11.7966 12.0468 12.1823 12.2734C12.3112 12.3491 12.4524 12.3851 12.5919 12.3851C12.8697 12.3851 13.1401 12.242 13.291 11.9852L13.3999 11.7998C14.1485 10.5258 14.6024 9.10164 14.7345 7.63619C15.0627 7.66308 15.3924 7.68244 15.7233 7.69459V12.5066C15.7233 12.9539 16.086 13.3166 16.5332 13.3166C16.9805 13.3166 17.3432 12.9538 17.3432 12.5066V7.69459C17.6742 7.68244 18.0038 7.66308 18.332 7.63619C18.464 9.10148 18.9179 10.5258 19.6665 11.7996L19.7755 11.9852C19.9264 12.2421 20.1969 12.3851 20.4746 12.3851C20.614 12.3851 20.7553 12.3491 20.8842 12.2734C21.2699 12.0468 21.3988 11.5505 21.1724 11.1648L21.0632 10.9791C20.4281 9.89819 20.0463 8.68806 19.9413 7.44398C20.4153 7.36929 20.8855 7.28003 21.351 7.17457C21.4868 8.70798 22.1201 10.1537 23.1697 11.2988C23.3295 11.473 23.5478 11.5614 23.767 11.5614C23.9626 11.5614 24.1586 11.4911 24.314 11.3486C24.6438 11.0463 24.6661 10.534 24.3638 10.2042C23.4918 9.25279 22.9936 8.03155 22.9472 6.74697C23.2972 6.63868 23.6439 6.52131 23.9874 6.39527C24.2694 8.12729 25.3453 9.63989 26.936 10.4697L26.9843 10.4949C27.1039 10.5573 27.2319 10.5869 27.358 10.5869C27.6502 10.5869 27.9324 10.4282 28.0768 10.1512C28.2836 9.7545 28.1297 9.26526 27.733 9.05855L27.6849 9.03344C26.438 8.38301 25.635 7.14314 25.5421 5.75424C25.8605 5.60811 26.1752 5.45413 26.4862 5.29229C27.0796 6.84417 28.2939 8.08809 29.8696 8.71325L30.1205 8.8128C30.2185 8.85159 30.3195 8.87006 30.4189 8.87006C30.7412 8.87006 31.0459 8.67623 31.172 8.35855C31.3369 7.94269 31.1335 7.472 30.7176 7.30709L30.4669 7.20762C29.2389 6.7204 28.3131 5.71754 27.9176 4.47646C28.2023 4.29932 28.4832 4.11512 28.7602 3.92421C29.5559 5.0169 30.6798 5.826 31.9855 6.23116L32.0173 6.24097C32.0969 6.26559 32.1774 6.27725 32.2566 6.27725C32.6024 6.27725 32.9227 6.05386 33.0301 5.70612C33.1623 5.27877 32.9229 4.82533 32.4954 4.6933Z" fill="url(#paint0_linear)"/>
<defs>
<linearGradient id="paint0_linear" x1="23.3821" y1="9.85781" x2="1.63344" y2="-4.64026" gradientUnits="userSpaceOnUse">
<stop stop-color="#FF5A78"/>
<stop offset="1" stop-color="#FF5A5A"/>
</linearGradient>
</defs>
</svg>
