<svg width="34" height="13" viewBox="0 0 34 13" fill="none" xmlns="http://www.w3.org/2000/svg">
<path d="M33.8848 11.6925L28.5531 3.86143C27.438 2.22384 25.783 0.995522 23.8926 0.402712C22.0021 -0.189966 19.9421 -0.126747 18.0916 0.581079L13.2232 2.44318C12.8806 2.5742 12.7092 2.95803 12.8402 3.30056C12.9712 3.64308 13.3551 3.81434 13.6976 3.68359L18.5661 1.82149C21.8321 0.572513 25.4873 1.71856 27.4553 4.6089L30.7301 9.41872L24.8532 5.27954C23.6215 4.412 22.0347 4.18436 20.6087 4.67072L2.92573 10.7013C2.31028 10.9115 1.63373 10.5829 1.41791 9.96936C1.14166 9.1841 1.53432 8.33589 2.31187 8.03853L11.3963 4.71131C11.7389 4.58029 11.9103 4.19646 11.7793 3.85394C11.6482 3.51135 11.2643 3.34008 10.9219 3.4709L1.8374 6.79819C0.382895 7.35447 -0.351628 8.94099 0.165015 10.41C0.621493 11.7078 2.05216 12.4025 3.35439 11.9582L21.0374 5.92773C22.0624 5.5781 23.203 5.74173 24.0886 6.36535L32.9538 12.6092C33.0692 12.6904 33.2028 12.7303 33.3359 12.7303C33.5054 12.7303 33.6738 12.6656 33.8019 12.5395C34.0305 12.3143 34.0655 11.9578 33.8848 11.6925Z" fill="url(#paint0_linear)"/>
<defs>
<linearGradient id="paint0_linear" x1="24.0422" y1="9.4238" x2="2.70923" y2="-5.87205" gradientUnits="userSpaceOnUse">
<stop stop-color="#FF5A78"/>
<stop offset="1" stop-color="#FF5A5A"/>
</linearGradient>
</defs>
</svg>
