<svg width="37" height="34" viewBox="0 0 37 34" fill="none" xmlns="http://www.w3.org/2000/svg">
<path d="M29.4422 33.6766C29.1443 33.6766 28.8574 33.6324 28.5964 33.544C28.0602 33.3622 27.6527 33 27.4208 32.5071C25.7092 31.9506 24.1581 29.5549 23.1273 25.8452L21.7656 20.9456L18.7657 17.1077L21.6229 27.3893L21.6243 27.394L21.6256 27.3986L22.9986 32.3392C23.1443 32.8636 22.8367 33.4089 22.3126 33.555C21.7157 33.7209 21.1058 33.7172 20.5949 33.544C20.0586 33.3623 19.6511 33.0001 19.4193 32.5072C17.7078 31.9505 16.1565 29.5542 15.1257 25.8453L14.698 24.3063C14.6093 23.9868 14.7964 23.6557 15.1159 23.5669C15.4355 23.4781 15.7666 23.6653 15.8554 23.9848L16.2831 25.5238C17.0678 28.3474 18.044 30.0032 18.9166 30.8114L18.8461 30.5578C18.6387 29.8114 18.7324 29.0303 19.1098 28.3582C19.3928 27.8545 19.8128 27.4543 20.3223 27.1947L17.3167 16.3795C17.1893 15.9211 17.3971 15.4513 17.8218 15.2369C18.2467 15.0224 18.7479 15.1346 19.0411 15.5093L22.7858 20.2999C22.8343 20.362 22.8702 20.4331 22.8913 20.509L24.2849 25.5236C24.7805 27.3073 25.4151 28.8022 26.12 29.8469C26.3795 30.2315 26.6482 30.5531 26.9163 30.8038L26.8479 30.5576C26.4731 29.209 27.1221 27.8054 28.3235 27.1925L27.6571 24.7945C27.6558 24.79 27.6547 24.7858 27.6533 24.7812L27.6527 24.7792L25.9961 18.818L21.1879 12.6604C20.9837 12.3989 21.0301 12.0214 21.2916 11.8174C21.5532 11.6133 21.9305 11.6597 22.1346 11.9211L27.0161 18.1726C27.0646 18.2347 27.1004 18.3056 27.1214 18.3815L28.8141 24.4724C29.3088 26.2488 29.9414 27.7381 30.6439 28.7801C30.904 29.1659 31.1732 29.4886 31.442 29.7398L31.3736 29.4937C30.9992 28.1462 31.6467 26.7438 32.846 26.1302C32.8159 26.0423 32.7918 25.9518 32.7738 25.8588L30.2244 16.688L26.1871 11.5176C25.2046 10.2595 24.6272 8.70588 24.5451 7.11337L23.4186 6.61769C23.115 6.48412 22.9771 6.12969 23.1107 5.82611C23.2444 5.52254 23.5987 5.38488 23.9024 5.51821L34.5135 10.1876C35.5741 10.6543 36.2595 11.7045 36.2595 12.8633V26.6107C36.2595 27.1552 35.8169 27.5982 35.2728 27.5984H35.2716C34.9973 27.5984 34.7296 27.5656 34.4776 27.5028L35.5263 31.2749C35.6719 31.7997 35.3641 32.345 34.84 32.4908C34.2434 32.6568 33.6335 32.6529 33.1226 32.4798C32.5864 32.298 32.1788 31.9359 31.947 31.443C31.4428 31.279 30.9526 30.9554 30.4854 30.4858L31.0006 32.3391C31.1463 32.8635 30.8386 33.4089 30.3144 33.5549C30.0222 33.636 29.7272 33.6766 29.4422 33.6766ZM20.6553 28.3935C20.4512 28.538 20.2811 28.7253 20.1569 28.9463C19.936 29.3395 19.8815 29.7976 20.0033 30.2359L20.4496 31.8419C20.53 32.1315 20.6986 32.3108 20.9801 32.4062C21.2067 32.483 21.4902 32.4957 21.7812 32.4449L20.6553 28.3935ZM28.6564 28.3915C28.0912 28.7952 27.8083 29.5284 28.005 30.236L28.4513 31.8421C28.5318 32.1315 28.7003 32.3108 28.9819 32.4063C29.2083 32.4831 29.4918 32.4957 29.7829 32.445L28.6564 28.3915ZM33.182 27.3277C32.6169 27.7313 32.3342 28.4644 32.5308 29.1719L32.9771 30.7779C33.0576 31.0675 33.2261 31.2468 33.5076 31.3422C33.7342 31.4191 34.0177 31.4317 34.3088 31.3809L33.182 27.3277ZM35.058 22.1799C34.4056 22.4175 33.9368 23.048 33.9367 23.7824L33.9365 25.4493C33.9365 25.7499 34.0509 25.9678 34.2966 26.135C34.4943 26.2698 34.764 26.3578 35.058 26.3869V22.1799ZM25.8056 7.66799C25.9716 8.79613 26.4298 9.87679 27.1337 10.7781L31.2443 16.0426C31.2928 16.1046 31.3286 16.1756 31.3495 16.2513L33.0683 22.4342C33.4685 21.6745 34.195 21.1109 35.058 20.9352V12.8631C35.058 12.1806 34.6544 11.5618 34.0295 11.2869L25.8056 7.66799ZM14.6223 22.3928C14.3593 22.3928 14.1179 22.2187 14.0439 21.9529L12.7878 17.4328L4.52033 13.7948C1.77429 12.5865 0 9.86718 0 6.86705C0 6.53529 0.268822 6.26646 0.600586 6.26646C0.93235 6.26646 1.20117 6.53529 1.20117 6.86705C1.20117 9.39103 2.69399 11.6788 5.00408 12.6953L13.5322 16.448C13.6971 16.5205 13.8208 16.6632 13.869 16.8369L15.2013 21.6312C15.29 21.9507 15.103 22.2818 14.7834 22.3707C14.7296 22.3857 14.6755 22.3928 14.6223 22.3928ZM21.266 5.61519C21.1852 5.61519 21.1031 5.59877 21.0244 5.56418L14.8538 2.32841C13.7031 1.82216 12.4822 1.56543 11.2252 1.56543H8.60059C8.26882 1.56543 8 1.29661 8 0.964844C8 0.63308 8.26882 0.364258 8.60059 0.364258H11.2252C12.6497 0.364258 14.0333 0.655262 15.3376 1.22902L21.5083 4.4647C21.8119 4.59836 21.9497 4.95278 21.8162 5.25636C21.7171 5.48122 21.4969 5.61519 21.266 5.61519Z" fill="url(#paint0_linear)"/>
<defs>
<linearGradient id="paint0_linear" x1="25.6399" y1="25.0244" x2="-6.09687" y2="15.7506" gradientUnits="userSpaceOnUse">
<stop stop-color="#FF5A78"/>
<stop offset="1" stop-color="#FF5A5A"/>
</linearGradient>
</defs>
</svg>
