<svg width="34" height="13" fill="none" xmlns="http://www.w3.org/2000/svg"><path d="M33.885 11.693L28.553 3.86a8.874 8.874 0 00-4.66-3.458 8.873 8.873 0 00-5.801.178l-4.869 1.862a.664.664 0 10.475 1.24l4.868-1.862a7.482 7.482 0 018.89 2.788l3.274 4.81-5.877-4.14a4.737 4.737 0 00-4.244-.608L2.926 10.7a1.194 1.194 0 01-1.508-.732 1.517 1.517 0 01.894-1.93l9.084-3.328a.664.664 0 10-.474-1.24L1.837 6.798A2.838 2.838 0 00.165 10.41a2.527 2.527 0 003.19 1.548l17.682-6.03a3.406 3.406 0 013.052.437l8.865 6.244a.663.663 0 00.848-.07.664.664 0 00.083-.846z" fill="url(#paint0_linear)"/><defs><linearGradient id="paint0_linear" x1="24.042" y1="9.424" x2="2.709" y2="-5.872" gradientUnits="userSpaceOnUse"><stop stop-color="#FF5A78"/><stop offset="1" stop-color="#FF5A5A"/></linearGradient></defs></svg>