<svg width="34" height="14" fill="none" xmlns="http://www.w3.org/2000/svg"><path d="M32.495 4.693l-.03-.01a4.67 4.67 0 01-2.407-1.727 21.982 21.982 0 001.754-1.573.81.81 0 10-1.146-1.146 19.836 19.836 0 01-11.708 5.71c-.798.095-1.607.144-2.423.144h-.003a20.301 20.301 0 01-2.51-.155A19.836 19.836 0 012.4.237a.81.81 0 00-1.145 1.146c.56.56 1.145 1.083 1.753 1.573A4.667 4.667 0 01.603 4.684l-.032.01A.81.81 0 101.05 6.24l.033-.01a6.284 6.284 0 003.224-2.307c.277.191.558.375.843.553a4.354 4.354 0 01-2.55 2.73l-.25.1a.81.81 0 00.597 1.506l.251-.1a5.969 5.969 0 003.383-3.42c.311.161.626.315.944.461a3.99 3.99 0 01-2.142 3.28l-.048.025a.81.81 0 00.748 1.436l.049-.025A5.604 5.604 0 009.08 6.394c.344.126.69.244 1.04.352a5.392 5.392 0 01-1.416 3.457.81.81 0 101.194 1.095 7.007 7.007 0 001.818-4.124c.466.105.936.194 1.41.269a8.37 8.37 0 01-1.122 3.535l-.109.186a.81.81 0 001.397.82l.109-.185a9.993 9.993 0 001.335-4.164c.328.027.657.046.988.059v4.812a.81.81 0 001.62 0V7.695c.331-.013.66-.032.989-.059a9.99 9.99 0 001.334 4.164l.11.185a.81.81 0 101.396-.82l-.109-.186a8.371 8.371 0 01-1.122-3.535c.474-.075.945-.164 1.41-.27A7.008 7.008 0 0023.17 11.3a.808.808 0 001.144.05.81.81 0 00.05-1.145 5.393 5.393 0 01-1.417-3.457c.35-.108.697-.226 1.04-.352a5.604 5.604 0 002.949 4.075l.048.025a.806.806 0 001.093-.344.81.81 0 00-.344-1.092l-.048-.026a3.99 3.99 0 01-2.143-3.279c.318-.146.633-.3.944-.462a5.969 5.969 0 003.384 3.421l.25.1a.81.81 0 10.598-1.506l-.251-.1a4.354 4.354 0 01-2.55-2.73 21.5 21.5 0 00.843-.553 6.284 6.284 0 003.225 2.307l.032.01a.809.809 0 001.013-.535.81.81 0 00-.535-1.013z" fill="url(#paint0_linear)"/><defs><linearGradient id="paint0_linear" x1="23.382" y1="9.858" x2="1.633" y2="-4.64" gradientUnits="userSpaceOnUse"><stop stop-color="#FF5A78"/><stop offset="1" stop-color="#FF5A5A"/></linearGradient></defs></svg>