<svg width="37" height="34" fill="none" xmlns="http://www.w3.org/2000/svg"><path d="M29.442 33.677c-.298 0-.585-.045-.846-.133a1.966 1.966 0 01-1.175-1.037c-1.712-.556-3.263-2.952-4.294-6.662l-1.361-4.9-3-3.837 2.857 10.281.001.005.002.005 1.373 4.94a.989.989 0 01-.686 1.216c-.597.166-1.207.162-1.718-.011a1.965 1.965 0 01-1.176-1.037c-1.711-.556-3.262-2.953-4.293-6.662l-.428-1.539a.6.6 0 011.157-.321l.428 1.539c.785 2.823 1.761 4.48 2.634 5.287l-.07-.253a2.886 2.886 0 01.263-2.2 2.89 2.89 0 011.212-1.163l-3.005-10.816a.975.975 0 01.505-1.142.975.975 0 011.22.272l3.744 4.79a.602.602 0 01.105.21l1.394 5.015c.495 1.783 1.13 3.278 1.835 4.323.26.384.528.706.796.957l-.068-.246a2.914 2.914 0 011.476-3.366l-.667-2.398-.004-.013v-.002l-1.657-5.961-4.808-6.158a.6.6 0 11.947-.739l4.881 6.252a.599.599 0 01.105.209l1.693 6.09c.495 1.777 1.127 3.266 1.83 4.308.26.386.53.709.798.96l-.068-.246a2.914 2.914 0 011.472-3.364 2.024 2.024 0 01-.072-.271l-2.55-9.171-4.037-5.17a7.847 7.847 0 01-1.642-4.405l-1.126-.495a.6.6 0 11.483-1.1l10.611 4.67a2.924 2.924 0 011.747 2.675v13.748a.989.989 0 01-.987.987h-.001a3.29 3.29 0 01-.794-.095l1.048 3.772a.989.989 0 01-.686 1.216c-.597.166-1.207.162-1.717-.011a1.965 1.965 0 01-1.176-1.037c-.504-.164-.994-.488-1.462-.957l.516 1.853a.989.989 0 01-.687 1.216 3.273 3.273 0 01-.872.122zm-8.787-5.284a1.69 1.69 0 00-.652 1.843l.447 1.606c.08.29.249.469.53.564.227.077.51.09.801.039l-1.126-4.052zm8.001-.002a1.71 1.71 0 00-.651 1.845l.446 1.606c.08.29.25.469.53.564.227.077.51.09.802.039l-1.127-4.053zm4.526-1.063a1.71 1.71 0 00-.651 1.844l.446 1.606c.08.29.25.469.53.564.227.077.51.09.802.039l-1.127-4.053zm1.876-5.148a1.71 1.71 0 00-1.121 1.602v1.667c0 .3.114.519.36.686.197.135.467.223.761.252V22.18zM25.806 7.668a6.64 6.64 0 001.328 3.11l4.11 5.265a.597.597 0 01.105.208l1.72 6.183a2.917 2.917 0 011.989-1.499v-8.072c0-.682-.404-1.301-1.029-1.576l-8.223-3.619zM14.622 22.393a.601.601 0 01-.578-.44l-1.256-4.52-8.268-3.638A7.571 7.571 0 010 6.867a.6.6 0 111.201 0 6.37 6.37 0 003.803 5.828l8.528 3.753a.6.6 0 01.337.389l1.332 4.794a.6.6 0 01-.579.762zm6.644-16.778a.6.6 0 01-.242-.05l-6.17-3.237a8.957 8.957 0 00-3.629-.763H8.601a.6.6 0 110-1.2h2.624c1.425 0 2.808.29 4.113.864l6.17 3.236a.6.6 0 01-.242 1.15z" fill="url(#paint0_linear)"/><defs><linearGradient id="paint0_linear" x1="25.64" y1="25.024" x2="-6.097" y2="15.751" gradientUnits="userSpaceOnUse"><stop stop-color="#FF5A78"/><stop offset="1" stop-color="#FF5A5A"/></linearGradient></defs></svg>